Coordinates
version=1
nRows=54
nColumns=12
inDegrees=yes

Units are S.I. units (second, meters, Newtons, ...)
Angles are in degrees

endheader
time	SC_y	SC_z	SC_x	AC_y	AC_z	AC_x	GH_y	GH_z	GH_yy	EL_x	PS_y
       0.0              -23.08          11.39          31.83          32.59         -16.11          7.081          167.5          61.84          176.9          72.02          104.5
   0.01967              -23.08           11.4          31.83          32.59         -16.11          7.081          167.5          61.84          176.9          72.01          104.5
   0.03935              -23.08           11.4          31.83          32.59          -16.1          7.081          167.4          61.83          176.8          72.01          104.5
   0.05902              -23.08           11.4          31.83          32.59          -16.1          7.082          167.4          61.83          176.8           72.0          104.5
    0.0787              -23.08          11.41          31.84           32.6          -16.1          7.082          167.3          61.83          176.8          71.99          104.5
   0.09837              -23.09          11.41          31.84           32.6         -16.09          7.082          167.3          61.83          176.8          71.99          104.4
     0.118              -23.09          11.42          31.85           32.6         -16.09          7.082          167.2          61.83          176.8          71.98          104.4
    0.1377              -23.09          11.43          31.85          32.61         -16.09          7.083          167.1          61.83          176.8          71.97          104.4
    0.1574              -23.09          11.43          31.86          32.61         -16.08          7.083          167.1          61.83          176.8          71.96          104.4
    0.1771              -23.09          11.44          31.86          32.61         -16.08          7.083          167.0          61.83          176.8          71.95          104.4
    0.1967              -23.09          11.45          31.87          32.62         -16.07          7.084          166.9          61.83          176.8          71.94          104.4
    0.2164              -23.09          11.45          31.87          32.62         -16.07          7.084          166.8          61.83          176.8          71.93          104.3
    0.2361              -23.09          11.46          31.88          32.62         -16.06          7.084          166.7          61.83          176.8          71.91          104.3
    0.2558               -23.1          11.47          31.89          32.63         -16.05          7.085          166.6          61.82          176.7           71.9          104.3
    0.2754               -23.1          11.48          31.89          32.63         -16.05          7.085          166.5          61.82          176.7          71.88          104.3
    0.2951               -23.1          11.49           31.9          32.64         -16.04          7.086          166.3          61.82          176.7          71.87          104.2
    0.3148               -23.1           11.5          31.91          32.65         -16.03          7.086          166.2          61.82          176.7          71.85          104.2
    0.3345              -23.11          11.52          31.92          32.65         -16.02          7.087          166.0          61.82          176.7          71.83          104.2
    0.3541              -23.11          11.53          31.93          32.66         -16.01          7.088          165.9          61.81          176.7          71.81          104.1
    0.3738              -23.11          11.54          31.94          32.67          -16.0          7.089          165.7          61.81          176.6          71.79          104.1
    0.3935              -23.11          11.56          31.95          32.68         -15.99          7.089          165.5          61.81          176.6          71.76          104.0
    0.4132              -23.12          11.58          31.97          32.68         -15.98           7.09          165.3          61.81          176.6          71.73          104.0
    0.4328              -23.12           11.6          31.98           32.7         -15.97          7.091          165.0           61.8          176.5           71.7          103.9
    0.4525              -23.13          11.62           32.0          32.71         -15.95          7.092          164.7           61.8          176.5          71.67          103.9
    0.4722              -23.13          11.65          32.02          32.72         -15.93          7.094          164.4           61.8          176.5          71.63          103.8
    0.4919              -23.14          11.67          32.04          32.73         -15.91          7.095          164.1          61.79          176.4          71.59          103.7
    0.5115              -23.14           11.7          32.06          32.75         -15.89          7.097          163.7          61.79          176.4          71.54          103.6
    0.5312              -23.15          11.74          32.09          32.77         -15.87          7.098          163.3          61.78          176.3          71.49          103.5
    0.5509              -23.16          11.78          32.12          32.79         -15.84            7.1          162.8          61.78          176.3          71.43          103.4
    0.5706              -23.17          11.82          32.15          32.81         -15.81          7.103          162.3          61.77          176.2          71.36          103.3
    0.5902              -23.18          11.87          32.19          32.84         -15.78          7.105          161.7          61.76          176.1          71.28          103.2
    0.6099              -23.19          11.93          32.23          32.87         -15.73          7.108          161.0          61.75          176.1           71.2          103.0
    0.6296               -23.2           12.0          32.28           32.9         -15.69          7.112          160.1          61.74          176.0          71.09          102.8
    0.6492              -23.22          12.08          32.34          32.94         -15.63          7.115          159.2          61.73          175.8          70.97          102.6
    0.6689              -23.24          12.17          32.41          32.99         -15.57           7.12          158.1          61.72          175.7          70.83          102.3
    0.6886              -23.26          12.28          32.49          33.05          -15.5          7.126          156.7           61.7          175.5          70.67          102.0
    0.7083              -23.28          12.41          32.59          33.12         -15.41          7.132          155.2          61.68          175.3          70.47          101.7
    0.7279              -23.31          12.56          32.71           33.2          -15.3           7.14          153.3          61.66          175.1          70.24          101.3
    0.7476              -23.35          12.75          32.85          33.29         -15.17          7.149          151.0          61.63          174.8          69.95          100.7
    0.7673               -23.4          12.98          33.02          33.41         -15.01          7.161          148.3          61.59          174.5          69.61          100.1
     0.787              -23.45          13.26          33.23          33.56         -14.82          7.175          144.8          61.55          174.1          69.18          99.34
    0.8066              -23.52          13.61          33.49          33.74         -14.58          7.192          140.6          61.49          173.6          68.65          98.37
    0.8263              -23.61          14.05          33.82          33.97         -14.27          7.215          135.2          61.42          172.9          67.97          97.15
     0.846              -23.72          14.61          34.25          34.26         -13.88          7.243          128.4          61.34          172.1          67.12          95.59
    0.8657              -23.86          15.33          34.79          34.63         -13.39          7.279          119.6          61.23          171.0          66.02           93.6
    0.8853              -24.05          16.25          35.48          35.11         -12.75          7.326          108.4          61.08          169.6          64.62          91.05
     0.905              -24.28          17.43          36.37          35.73         -11.94          7.385          94.08           60.9          167.9          62.83          87.79
    0.9247              -24.58          18.91          37.48           36.5         -10.91          7.459          76.06          60.67          165.7          60.57          83.69
    0.9444              -24.93          20.71          38.84          37.43         -9.665           7.55           54.1          60.39          163.0          57.82           78.7
     0.964              -25.35           22.8          40.41          38.52         -8.219          7.656          28.65          60.07          159.9          54.64          72.91
    0.9837               -25.8          25.07          42.12           39.7         -6.653           7.77          1.083          59.72          156.5          51.19          66.64
     1.003              -26.25          27.33          43.82          40.88         -5.087          7.884         -26.48          59.37          153.2          47.74          60.37
     1.023              -26.67          29.42          45.39          41.96         -3.641          7.989         -51.93          59.04          150.1          44.56          54.58
     1.043              -27.03          31.23          46.75           42.9         -2.394           8.08          -73.9          58.76          147.4          41.81          49.58
